<?xml version="1.0" encoding="utf-8"?>
<!-- Svg Vector Icons : http://www.onlinewebfonts.com/icon -->
<!DOCTYPE svg PUBLIC "-//W3C//DTD SVG 1.1//EN" "http://www.w3.org/Graphics/SVG/1.1/DTD/svg11.dtd">
<svg version="1.1" xmlns="http://www.w3.org/2000/svg" xmlns:xlink="http://www.w3.org/1999/xlink" x="0px" y="0px" viewBox="0 0 1000 1000" enable-background="new 0 0 1000 1000" xml:space="preserve">
<metadata> Svg Vector Icons : http://www.onlinewebfonts.com/icon </metadata>
<g><path d="M286,731c-5.8,0-11.6-2.2-16.1-6.7c-8.9-8.9-8.9-23.3,0-32.2l428-428c8.9-8.9,23.3-8.9,32.2,0c8.9,8.9,8.9,23.3,0,32.2l-428,428C297.6,728.8,291.8,731,286,731z"/><path d="M500,990C229.8,990,10,770.2,10,500C10,229.8,229.8,10,500,10c270.2,0,490,219.8,490,490C990,770.2,770.2,990,500,990z M500,55.6C254.9,55.6,55.5,254.9,55.5,500c0,245.1,199.4,444.4,444.5,444.4c245.1,0,444.5-199.4,444.5-444.4C944.5,254.9,745.1,55.6,500,55.6z"/><path d="M714.1,731c-5.8,0-11.6-2.2-16.1-6.7l-428-428c-8.9-8.9-8.9-23.3,0-32.2c8.9-8.9,23.3-8.9,32.2,0l428,428c8.9,8.9,8.9,23.3,0,32.2C725.7,728.8,719.9,731,714.1,731z"/></g>
</svg>